<?xml version="1.0" encoding="UTF-8" standalone="no"?>
<svg
   xmlns:dc="http://purl.org/dc/elements/1.1/"
   xmlns:cc="http://creativecommons.org/ns#"
   xmlns:rdf="http://www.w3.org/1999/02/22-rdf-syntax-ns#"
   xmlns:svg="http://www.w3.org/2000/svg"
   xmlns="http://www.w3.org/2000/svg"
   id="svg3784"
   version="1.1"
   viewBox="0 0 26.458332 66.145835"
   height="250"
   width="100">
  <defs
     id="defs3778" />
  <metadata
     id="metadata3781">
    <rdf:RDF>
      <cc:Work
         rdf:about="">
        <dc:format>image/svg+xml</dc:format>
        <dc:type
           rdf:resource="http://purl.org/dc/dcmitype/StillImage" />
        <dc:title></dc:title>
      </cc:Work>
    </rdf:RDF>
  </metadata>
  <g
     transform="translate(0,-230.85415)"
     id="layer1">
    <text
       id="text3788"
       y="256.78329"
       x="-5.0270839"
       style="font-style:normal;font-variant:normal;font-weight:bold;font-stretch:normal;font-size:50.79999924px;line-height:1.25;font-family:Ubuntu;-inkscape-font-specification:'Ubuntu Bold';letter-spacing:0px;word-spacing:0px;fill:#000000;fill-opacity:1;stroke:none;stroke-width:0.26458332"
       xml:space="preserve"><tspan
         style="font-style:normal;font-variant:normal;font-weight:bold;font-stretch:normal;font-family:Ubuntu;-inkscape-font-specification:'Ubuntu Bold';stroke-width:0.26458332"
         y="304.1539"
         x="-5.0270839"
         id="tspan3786" /></text>
    <text
       id="text3792"
       y="235.08748"
       x="12.170834"
       style="font-style:normal;font-variant:normal;font-weight:normal;font-stretch:normal;font-size:50.79999924px;line-height:1.25;font-family:Ubuntu;-inkscape-font-specification:Ubuntu;letter-spacing:0px;word-spacing:0px;fill:#000000;fill-opacity:0;stroke:none;stroke-width:0.26458332"
       xml:space="preserve"><tspan
         style="font-style:normal;font-variant:normal;font-weight:normal;font-stretch:normal;font-family:Ubuntu;-inkscape-font-specification:Ubuntu;fill:#000000;fill-opacity:0;stroke-width:0.26458332"
         y="282.45807"
         x="12.170834"
         id="tspan3790" /></text>
    <text
       id="text3796"
       y="242.49582"
       x="9.5249996"
       style="font-style:normal;font-variant:normal;font-weight:bold;font-stretch:normal;font-size:50.79999924px;line-height:1.25;font-family:serif;-inkscape-font-specification:'serif Bold';letter-spacing:0px;word-spacing:0px;fill:#000000;fill-opacity:1;stroke:none;stroke-width:0.26458332"
       xml:space="preserve"><tspan
         style="stroke-width:0.26458332"
         y="287.44193"
         x="9.5249996"
         id="tspan3794" /></text>
    <g
       id="text3800"
       style="font-style:normal;font-variant:normal;font-weight:bold;font-stretch:normal;font-size:66.15338898px;line-height:1.25;font-family:Umpush;-inkscape-font-specification:'Umpush Bold';letter-spacing:0px;word-spacing:0px;fill:#000000;fill-opacity:1;stroke:none;stroke-width:0.34454891"
       transform="scale(0.73269096,1.3648319)"
       aria-label="8">
      <path
         id="path5390"
         style="stroke-width:0.34454891"
         d="m 24.638935,216.70466 q -2.777926,0.93674 -5.878866,0.93674 -3.10094,0 -5.878866,-0.93674 -2.777925,-0.93674 -4.9744244,-2.68102 -2.1641978,-1.74428 -3.4562562,-4.55451 -1.2920583,-2.81023 -1.2920583,-6.26648 0,-9.30282 8.9152029,-11.62853 -6.9771154,-2.58411 -6.9771154,-9.14131 0,-5.78196 3.8438737,-9.43203 3.8761747,-3.65006 9.8196437,-3.65006 5.943469,0 9.787342,3.65006 3.876175,3.65007 3.876175,9.43203 0,6.5572 -6.977115,9.14131 8.915203,2.32571 8.915203,11.62853 0,3.45625 -1.292058,6.26648 -1.292059,2.81023 -3.488558,4.55451 -2.164198,1.74428 -4.942123,2.68102 z M 14.431673,186.92271 q 1.615073,1.67968 4.328396,1.67968 2.713323,0 4.296094,-1.67968 1.615073,-1.71198 1.615073,-4.393 0,-2.87483 -1.711977,-4.4576 -1.711978,-1.61507 -4.19919,-1.61507 -2.487212,0 -4.19919,1.61507 -1.711977,1.58277 -1.711977,4.4576 0,2.68102 1.582771,4.393 z m -1.453565,21.57738 q 2.099595,2.03499 5.781961,2.03499 3.682366,0 5.74966,-2.03499 2.099595,-2.03499 2.099595,-5.29744 0,-3.68237 -2.034992,-5.58815 -2.002691,-1.90579 -5.814263,-1.90579 -3.811572,0 -5.846564,1.90579 -2.002691,1.90578 -2.002691,5.58815 0,3.26245 2.067294,5.29744 z" />
    </g>
  </g>
</svg>
