<?xml version="1.0" encoding="UTF-8" standalone="no"?>
<svg
   xmlns:dc="http://purl.org/dc/elements/1.1/"
   xmlns:cc="http://creativecommons.org/ns#"
   xmlns:rdf="http://www.w3.org/1999/02/22-rdf-syntax-ns#"
   xmlns:svg="http://www.w3.org/2000/svg"
   xmlns="http://www.w3.org/2000/svg"
   id="svg3784"
   version="1.1"
   viewBox="0 0 26.458332 66.145835"
   height="250"
   width="100">
  <defs
     id="defs3778" />
  <metadata
     id="metadata3781">
    <rdf:RDF>
      <cc:Work
         rdf:about="">
        <dc:format>image/svg+xml</dc:format>
        <dc:type
           rdf:resource="http://purl.org/dc/dcmitype/StillImage" />
        <dc:title></dc:title>
      </cc:Work>
    </rdf:RDF>
  </metadata>
  <g
     transform="translate(0,-230.85415)"
     id="layer1">
    <text
       id="text3788"
       y="256.78329"
       x="-5.0270839"
       style="font-style:normal;font-variant:normal;font-weight:bold;font-stretch:normal;font-size:50.79999924px;line-height:1.25;font-family:Ubuntu;-inkscape-font-specification:'Ubuntu Bold';letter-spacing:0px;word-spacing:0px;fill:#000000;fill-opacity:1;stroke:none;stroke-width:0.26458332"
       xml:space="preserve"><tspan
         style="font-style:normal;font-variant:normal;font-weight:bold;font-stretch:normal;font-family:Ubuntu;-inkscape-font-specification:'Ubuntu Bold';stroke-width:0.26458332"
         y="304.1539"
         x="-5.0270839"
         id="tspan3786" /></text>
    <text
       id="text3792"
       y="235.08748"
       x="12.170834"
       style="font-style:normal;font-variant:normal;font-weight:normal;font-stretch:normal;font-size:50.79999924px;line-height:1.25;font-family:Ubuntu;-inkscape-font-specification:Ubuntu;letter-spacing:0px;word-spacing:0px;fill:#000000;fill-opacity:0;stroke:none;stroke-width:0.26458332"
       xml:space="preserve"><tspan
         style="font-style:normal;font-variant:normal;font-weight:normal;font-stretch:normal;font-family:Ubuntu;-inkscape-font-specification:Ubuntu;fill:#000000;fill-opacity:0;stroke-width:0.26458332"
         y="282.45807"
         x="12.170834"
         id="tspan3790" /></text>
    <text
       id="text3796"
       y="242.49582"
       x="9.5249996"
       style="font-style:normal;font-variant:normal;font-weight:bold;font-stretch:normal;font-size:50.79999924px;line-height:1.25;font-family:serif;-inkscape-font-specification:'serif Bold';letter-spacing:0px;word-spacing:0px;fill:#000000;fill-opacity:1;stroke:none;stroke-width:0.26458332"
       xml:space="preserve"><tspan
         style="stroke-width:0.26458332"
         y="287.44193"
         x="9.5249996"
         id="tspan3794" /></text>
    <g
       id="text3800"
       style="font-style:normal;font-variant:normal;font-weight:bold;font-stretch:normal;font-size:66.15338898px;line-height:1.25;font-family:Umpush;-inkscape-font-specification:'Umpush Bold';letter-spacing:0px;word-spacing:0px;fill:#000000;fill-opacity:1;stroke:none;stroke-width:0.34454891"
       transform="scale(0.73269096,1.3648319)"
       aria-label="9">
      <path
         id="path5462"
         style="stroke-width:0.34454891"
         d="m 35.395321,192.31706 q 0,6.6864 -1.227456,11.62852 -1.195154,4.90982 -3.456256,7.88156 -2.261102,2.97173 -5.329741,4.393 -3.068638,1.42126 -6.977115,1.42126 -5.97577,0 -9.8519452,-3.39165 -3.8761751,-3.42396 -3.9084766,-8.94751 h 7.7523498 q 0.258412,2.45491 2.002691,3.84388 1.744279,1.38896 4.360697,1.38896 1.970389,0 3.391653,-0.58143 1.453566,-0.58142 2.358007,-1.55047 0.904441,-1.00134 1.453565,-2.58411 0.581427,-1.61508 0.807537,-3.29475 0.258412,-1.67968 0.355316,-4.00538 -1.55047,1.55047 -3.456256,2.13189 -1.905786,0.58143 -4.974425,0.58143 -6.331086,0 -10.4656728,-4.4576 -4.1022854,-4.48991 -4.1022854,-11.24091 0,-7.10632 4.1022854,-11.62853 4.1345868,-4.5545 10.7240848,-4.5545 3.197844,0 5.781961,0.90444 2.584117,0.90444 4.328396,2.58412 1.77658,1.64737 3.036337,3.77927 1.259757,2.09959 1.970389,4.78061 0.710632,2.64872 1.001345,5.29744 0.323015,2.64872 0.323015,5.62046 z m -16.053826,1.80888 q 1.647375,0 2.907132,-0.58143 1.292058,-0.58142 2.067293,-1.45356 0.775235,-0.90445 1.259757,-2.0996 0.516823,-1.19515 0.678331,-2.2934 0.193808,-1.09825 0.193808,-2.1965 0,-4.00538 -1.905786,-6.5249 -1.873484,-2.51951 -5.362042,-2.51951 -3.456256,0 -5.394344,2.45491 -1.905786,2.45491 -1.905786,6.29878 0,4.06999 2.034992,6.4926 2.034992,2.42261 5.426645,2.42261 z" />
    </g>
  </g>
</svg>
