<?xml version="1.0" encoding="UTF-8" standalone="no"?>
<svg
   xmlns:dc="http://purl.org/dc/elements/1.1/"
   xmlns:cc="http://creativecommons.org/ns#"
   xmlns:rdf="http://www.w3.org/1999/02/22-rdf-syntax-ns#"
   xmlns:svg="http://www.w3.org/2000/svg"
   xmlns="http://www.w3.org/2000/svg"
   id="svg3784"
   version="1.1"
   viewBox="0 0 26.458332 66.145835"
   height="250"
   width="100">
  <defs
     id="defs3778" />
  <metadata
     id="metadata3781">
    <rdf:RDF>
      <cc:Work
         rdf:about="">
        <dc:format>image/svg+xml</dc:format>
        <dc:type
           rdf:resource="http://purl.org/dc/dcmitype/StillImage" />
        <dc:title></dc:title>
      </cc:Work>
    </rdf:RDF>
  </metadata>
  <g
     transform="translate(0,-230.85415)"
     id="layer1">
    <text
       id="text3788"
       y="256.78329"
       x="-5.0270839"
       style="font-style:normal;font-variant:normal;font-weight:bold;font-stretch:normal;font-size:50.79999924px;line-height:1.25;font-family:Ubuntu;-inkscape-font-specification:'Ubuntu Bold';letter-spacing:0px;word-spacing:0px;fill:#000000;fill-opacity:1;stroke:none;stroke-width:0.26458332"
       xml:space="preserve"><tspan
         style="font-style:normal;font-variant:normal;font-weight:bold;font-stretch:normal;font-family:Ubuntu;-inkscape-font-specification:'Ubuntu Bold';stroke-width:0.26458332"
         y="304.1539"
         x="-5.0270839"
         id="tspan3786" /></text>
    <text
       id="text3792"
       y="235.08748"
       x="12.170834"
       style="font-style:normal;font-variant:normal;font-weight:normal;font-stretch:normal;font-size:50.79999924px;line-height:1.25;font-family:Ubuntu;-inkscape-font-specification:Ubuntu;letter-spacing:0px;word-spacing:0px;fill:#000000;fill-opacity:0;stroke:none;stroke-width:0.26458332"
       xml:space="preserve"><tspan
         style="font-style:normal;font-variant:normal;font-weight:normal;font-stretch:normal;font-family:Ubuntu;-inkscape-font-specification:Ubuntu;fill:#000000;fill-opacity:0;stroke-width:0.26458332"
         y="282.45807"
         x="12.170834"
         id="tspan3790" /></text>
    <text
       id="text3796"
       y="242.49582"
       x="9.5249996"
       style="font-style:normal;font-variant:normal;font-weight:bold;font-stretch:normal;font-size:50.79999924px;line-height:1.25;font-family:serif;-inkscape-font-specification:'serif Bold';letter-spacing:0px;word-spacing:0px;fill:#000000;fill-opacity:1;stroke:none;stroke-width:0.26458332"
       xml:space="preserve"><tspan
         style="stroke-width:0.26458332"
         y="287.44193"
         x="9.5249996"
         id="tspan3794" /></text>
    <g
       id="text3800"
       style="font-style:normal;font-variant:normal;font-weight:bold;font-stretch:normal;font-size:66.15338898px;line-height:1.25;font-family:Umpush;-inkscape-font-specification:'Umpush Bold';letter-spacing:0px;word-spacing:0px;fill:#000000;fill-opacity:1;stroke:none;stroke-width:0.34454891"
       transform="scale(0.73269096,1.3648319)"
       aria-label="6">
      <path
         id="path4912"
         style="stroke-width:0.34454891"
         d="m 2.9646553,194.57816 q 0,-5.36204 0.775235,-9.59354 0.8075365,-4.26379 2.2611022,-7.17092 1.4535657,-2.90713 3.5531605,-4.81292 2.131896,-1.90578 4.683712,-2.77792 2.584116,-0.87214 5.717358,-0.87214 5.74966,0 9.593533,3.42395 3.843874,3.39166 3.843874,8.8183 l -6.880211,-0.0323 q -0.775235,-2.64872 -2.648719,-3.87618 -1.841184,-1.22745 -4.005381,-1.22745 -4.263793,0 -6.589498,3.42395 -2.325705,3.39166 -2.551815,9.62584 3.165543,-3.84387 8.785997,-3.84387 4.263792,0 7.655445,2.19649 3.423955,2.1642 5.265138,5.84657 1.841184,3.65006 1.841184,8.04306 0,4.4253 -1.744279,8.01076 -1.744279,3.55316 -5.168234,5.71736 -3.423955,2.1642 -7.946159,2.1642 -3.197844,0 -5.781961,-0.90444 -2.584117,-0.90444 -4.3606971,-2.58412 -1.7442788,-1.67967 -3.0040357,-3.77927 -1.259757,-2.13189 -1.9703891,-4.81292 -0.7106321,-2.68102 -1.0336467,-5.32974 -0.2907131,-2.68102 -0.2907131,-5.65275 z m 16.0215237,-1.80888 q -3.32705,0 -5.265138,2.358 -1.905786,2.32571 -1.905786,6.29879 0,3.90847 1.938088,6.52489 1.938087,2.58412 5.426645,2.58412 3.456256,0 5.394344,-2.42261 1.938087,-2.42261 1.938087,-6.42799 0,-3.90848 -2.00269,-6.39569 -1.970389,-2.51951 -5.52355,-2.51951 z" />
    </g>
  </g>
</svg>
