<?xml version="1.0" encoding="UTF-8" standalone="no"?>
<svg
   xmlns:dc="http://purl.org/dc/elements/1.1/"
   xmlns:cc="http://creativecommons.org/ns#"
   xmlns:rdf="http://www.w3.org/1999/02/22-rdf-syntax-ns#"
   xmlns:svg="http://www.w3.org/2000/svg"
   xmlns="http://www.w3.org/2000/svg"
   id="svg3784"
   version="1.1"
   viewBox="0 0 26.458332 66.145835"
   height="250"
   width="100">
  <defs
     id="defs3778" />
  <metadata
     id="metadata3781">
    <rdf:RDF>
      <cc:Work
         rdf:about="">
        <dc:format>image/svg+xml</dc:format>
        <dc:type
           rdf:resource="http://purl.org/dc/dcmitype/StillImage" />
        <dc:title></dc:title>
      </cc:Work>
    </rdf:RDF>
  </metadata>
  <g
     transform="translate(0,-230.85415)"
     id="layer1">
    <text
       id="text3788"
       y="256.78329"
       x="-5.0270839"
       style="font-style:normal;font-variant:normal;font-weight:bold;font-stretch:normal;font-size:50.79999924px;line-height:1.25;font-family:Ubuntu;-inkscape-font-specification:'Ubuntu Bold';letter-spacing:0px;word-spacing:0px;fill:#000000;fill-opacity:1;stroke:none;stroke-width:0.26458332"
       xml:space="preserve"><tspan
         style="font-style:normal;font-variant:normal;font-weight:bold;font-stretch:normal;font-family:Ubuntu;-inkscape-font-specification:'Ubuntu Bold';stroke-width:0.26458332"
         y="304.1539"
         x="-5.0270839"
         id="tspan3786" /></text>
    <text
       id="text3792"
       y="235.08748"
       x="12.170834"
       style="font-style:normal;font-variant:normal;font-weight:normal;font-stretch:normal;font-size:50.79999924px;line-height:1.25;font-family:Ubuntu;-inkscape-font-specification:Ubuntu;letter-spacing:0px;word-spacing:0px;fill:#000000;fill-opacity:0;stroke:none;stroke-width:0.26458332"
       xml:space="preserve"><tspan
         style="font-style:normal;font-variant:normal;font-weight:normal;font-stretch:normal;font-family:Ubuntu;-inkscape-font-specification:Ubuntu;fill:#000000;fill-opacity:0;stroke-width:0.26458332"
         y="282.45807"
         x="12.170834"
         id="tspan3790" /></text>
    <text
       id="text3796"
       y="242.49582"
       x="9.5249996"
       style="font-style:normal;font-variant:normal;font-weight:bold;font-stretch:normal;font-size:50.79999924px;line-height:1.25;font-family:serif;-inkscape-font-specification:'serif Bold';letter-spacing:0px;word-spacing:0px;fill:#000000;fill-opacity:1;stroke:none;stroke-width:0.26458332"
       xml:space="preserve"><tspan
         style="stroke-width:0.26458332"
         y="287.44193"
         x="9.5249996"
         id="tspan3794" /></text>
    <g
       id="text3800"
       style="font-style:normal;font-variant:normal;font-weight:bold;font-stretch:normal;font-size:66.15338898px;line-height:1.25;font-family:Umpush;-inkscape-font-specification:'Umpush Bold';letter-spacing:0px;word-spacing:0px;fill:#000000;fill-opacity:1;stroke:none;stroke-width:0.34454891"
       transform="scale(0.73269096,1.3648319)"
       aria-label="3">
      <path
         id="path5088"
         style="stroke-width:0.34454891"
         d="m 34.26477,202.71813 q 0,6.42799 -4.554506,10.69178 -4.554506,4.23149 -11.402415,4.23149 -4.069984,0 -7.526241,-1.77658 -3.4239542,-1.77658 -5.4912476,-5.03903 -2.034992,-3.29475 -2.034992,-7.39703 h 7.7523506 q 0.387617,3.10094 2.551815,5.10363 2.164198,2.00269 4.780616,2.00269 3.811572,0 5.97577,-2.1965 2.196499,-2.2288 2.196499,-5.49125 0,-3.13324 -2.487212,-5.10363 -2.487213,-2.00269 -6.20188,-2.00269 -1.55047,0 -3.10094,0.45222 v -7.55854 q 5.362042,-0.0646 7.461637,-1.71198 2.099595,-1.67967 2.099595,-5.39434 0,-1.97039 -1.970389,-3.52086 -1.97039,-1.55047 -4.102286,-1.55047 -2.745624,0 -4.554506,1.67968 -1.808881,1.64737 -2.067293,4.5222 H 3.8367947 q 0,-5.68506 4.1022854,-9.49663 4.1022849,-3.81157 10.1426579,-3.81157 5.97577,0 9.94885,3.45625 4.005381,3.42396 4.005381,8.8506 0,4.13459 -1.259757,6.4926 -1.259757,2.358 -4.069984,3.42395 7.558542,1.19516 7.558542,11.14401 z" />
    </g>
  </g>
</svg>
