<?xml version="1.0" encoding="UTF-8" standalone="no"?>
<svg
   xmlns:dc="http://purl.org/dc/elements/1.1/"
   xmlns:cc="http://creativecommons.org/ns#"
   xmlns:rdf="http://www.w3.org/1999/02/22-rdf-syntax-ns#"
   xmlns:svg="http://www.w3.org/2000/svg"
   xmlns="http://www.w3.org/2000/svg"
   id="svg3784"
   version="1.1"
   viewBox="0 0 26.458332 66.145835"
   height="250"
   width="100">
  <defs
     id="defs3778" />
  <metadata
     id="metadata3781">
    <rdf:RDF>
      <cc:Work
         rdf:about="">
        <dc:format>image/svg+xml</dc:format>
        <dc:type
           rdf:resource="http://purl.org/dc/dcmitype/StillImage" />
        <dc:title></dc:title>
      </cc:Work>
    </rdf:RDF>
  </metadata>
  <g
     transform="translate(0,-230.85415)"
     id="layer1">
    <text
       id="text3788"
       y="256.78329"
       x="-5.0270839"
       style="font-style:normal;font-variant:normal;font-weight:bold;font-stretch:normal;font-size:50.79999924px;line-height:1.25;font-family:Ubuntu;-inkscape-font-specification:'Ubuntu Bold';letter-spacing:0px;word-spacing:0px;fill:#000000;fill-opacity:1;stroke:none;stroke-width:0.26458332"
       xml:space="preserve"><tspan
         style="font-style:normal;font-variant:normal;font-weight:bold;font-stretch:normal;font-family:Ubuntu;-inkscape-font-specification:'Ubuntu Bold';stroke-width:0.26458332"
         y="304.1539"
         x="-5.0270839"
         id="tspan3786" /></text>
    <text
       id="text3792"
       y="235.08748"
       x="12.170834"
       style="font-style:normal;font-variant:normal;font-weight:normal;font-stretch:normal;font-size:50.79999924px;line-height:1.25;font-family:Ubuntu;-inkscape-font-specification:Ubuntu;letter-spacing:0px;word-spacing:0px;fill:#000000;fill-opacity:0;stroke:none;stroke-width:0.26458332"
       xml:space="preserve"><tspan
         style="font-style:normal;font-variant:normal;font-weight:normal;font-stretch:normal;font-family:Ubuntu;-inkscape-font-specification:Ubuntu;fill:#000000;fill-opacity:0;stroke-width:0.26458332"
         y="282.45807"
         x="12.170834"
         id="tspan3790" /></text>
    <text
       id="text3796"
       y="242.49582"
       x="9.5249996"
       style="font-style:normal;font-variant:normal;font-weight:bold;font-stretch:normal;font-size:50.79999924px;line-height:1.25;font-family:serif;-inkscape-font-specification:'serif Bold';letter-spacing:0px;word-spacing:0px;fill:#000000;fill-opacity:1;stroke:none;stroke-width:0.26458332"
       xml:space="preserve"><tspan
         style="stroke-width:0.26458332"
         y="287.44193"
         x="9.5249996"
         id="tspan3794" /></text>
    <g
       id="text3800"
       style="font-style:normal;font-variant:normal;font-weight:bold;font-stretch:normal;font-size:66.15338898px;line-height:1.25;font-family:Umpush;-inkscape-font-specification:'Umpush Bold';letter-spacing:0px;word-spacing:0px;fill:#000000;fill-opacity:1;stroke:none;stroke-width:0.34454891"
       transform="scale(0.73269096,1.3648319)"
       aria-label="2">
      <path
         id="path5548"
         style="stroke-width:0.34454891"
         d="m 18.953878,169.35072 q 6.686402,0 10.724084,3.65006 4.037683,3.65007 4.037683,9.49663 0,2.97174 -1.195154,5.81427 -1.162853,2.81022 -2.971735,5.00672 -1.808881,2.1965 -4.231491,4.52221 -2.390308,2.2934 -4.619108,4.13458 -2.1965,1.84119 -4.4253,4.03768 -2.1965,2.1965 -3.456257,4.10229 h 20.963648 v 7.10632 H 2.4801334 q 0.3230146,-4.16689 2.3580065,-8.04306 2.0672935,-3.87618 4.6837117,-6.4926 1.6473744,-1.67967 4.2960944,-3.94077 2.681021,-2.29341 4.554505,-3.97308 1.905787,-1.67968 3.779271,-3.71467 1.873485,-2.03499 2.87483,-4.19919 1.001345,-2.1965 1.001345,-4.4899 0,-2.55182 -2.2288,-4.23149 -2.228801,-1.67968 -4.974425,-1.67968 -3.456256,0 -5.394344,1.93809 -1.938087,1.90578 -2.099595,5.26513 h -7.75235 q 0,-6.49259 4.1991898,-10.40107 4.1991892,-3.90847 11.1763052,-3.90847 z" />
    </g>
  </g>
</svg>
